<mxfile host="Electron" agent="Mozilla/5.0 (X11; Linux x86_64) AppleWebKit/537.36 (KHTML, like Gecko) draw.io/28.0.6 Chrome/138.0.7204.100 Electron/37.2.3 Safari/537.36" version="28.0.6">
  <diagram name="Page-1" id="DRU9kdyZ9oS7xBPIt7LC">
    <mxGraphModel dx="1106" dy="843" grid="1" gridSize="10" guides="1" tooltips="1" connect="1" arrows="1" fold="1" page="1" pageScale="1" pageWidth="850" pageHeight="1100" math="0" shadow="0">
      <root>
        <mxCell id="0" />
        <mxCell id="1" parent="0" />
        <mxCell id="oKSWMBTvN-q5TcJnCWOV-11" value="&lt;font style=&quot;font-size: 17px;&quot;&gt;expenses&lt;/font&gt;" style="shape=table;startSize=30;container=1;collapsible=1;childLayout=tableLayout;fixedRows=1;rowLines=0;fontStyle=1;align=center;resizeLast=1;html=1;" vertex="1" parent="1">
          <mxGeometry x="260" y="480" width="400" height="200" as="geometry">
            <mxRectangle x="334" y="480" width="90" height="30" as="alternateBounds" />
          </mxGeometry>
        </mxCell>
        <mxCell id="oKSWMBTvN-q5TcJnCWOV-12" value="" style="shape=tableRow;horizontal=0;startSize=0;swimlaneHead=0;swimlaneBody=0;fillColor=none;collapsible=0;dropTarget=0;points=[[0,0.5],[1,0.5]];portConstraint=eastwest;top=0;left=0;right=0;bottom=1;" vertex="1" parent="oKSWMBTvN-q5TcJnCWOV-11">
          <mxGeometry y="30" width="400" height="30" as="geometry" />
        </mxCell>
        <mxCell id="oKSWMBTvN-q5TcJnCWOV-13" value="&lt;font style=&quot;font-size: 13px;&quot;&gt;PK&lt;/font&gt;" style="shape=partialRectangle;connectable=0;fillColor=none;top=0;left=0;bottom=0;right=0;fontStyle=1;overflow=hidden;whiteSpace=wrap;html=1;" vertex="1" parent="oKSWMBTvN-q5TcJnCWOV-12">
          <mxGeometry width="35" height="30" as="geometry">
            <mxRectangle width="35" height="30" as="alternateBounds" />
          </mxGeometry>
        </mxCell>
        <mxCell id="oKSWMBTvN-q5TcJnCWOV-14" value="&lt;font style=&quot;font-size: 15px;&quot;&gt;id : INTEGER&lt;/font&gt;" style="shape=partialRectangle;connectable=0;fillColor=none;top=0;left=0;bottom=0;right=0;align=left;spacingLeft=6;fontStyle=5;overflow=hidden;whiteSpace=wrap;html=1;" vertex="1" parent="oKSWMBTvN-q5TcJnCWOV-12">
          <mxGeometry x="35" width="365" height="30" as="geometry">
            <mxRectangle width="365" height="30" as="alternateBounds" />
          </mxGeometry>
        </mxCell>
        <mxCell id="oKSWMBTvN-q5TcJnCWOV-15" value="" style="shape=tableRow;horizontal=0;startSize=0;swimlaneHead=0;swimlaneBody=0;fillColor=none;collapsible=0;dropTarget=0;points=[[0,0.5],[1,0.5]];portConstraint=eastwest;top=0;left=0;right=0;bottom=0;" vertex="1" parent="oKSWMBTvN-q5TcJnCWOV-11">
          <mxGeometry y="60" width="400" height="60" as="geometry" />
        </mxCell>
        <mxCell id="oKSWMBTvN-q5TcJnCWOV-16" value="1" style="shape=partialRectangle;connectable=0;fillColor=none;top=0;left=0;bottom=0;right=0;editable=1;overflow=hidden;whiteSpace=wrap;html=1;" vertex="1" parent="oKSWMBTvN-q5TcJnCWOV-15">
          <mxGeometry width="35" height="60" as="geometry">
            <mxRectangle width="35" height="60" as="alternateBounds" />
          </mxGeometry>
        </mxCell>
        <mxCell id="oKSWMBTvN-q5TcJnCWOV-17" value="&lt;font style=&quot;font-size: 17px;&quot;&gt;description : VARCHAR(255)&lt;/font&gt;" style="shape=partialRectangle;connectable=0;fillColor=none;top=0;left=0;bottom=0;right=0;align=left;spacingLeft=6;overflow=hidden;whiteSpace=wrap;html=1;" vertex="1" parent="oKSWMBTvN-q5TcJnCWOV-15">
          <mxGeometry x="35" width="365" height="60" as="geometry">
            <mxRectangle width="365" height="60" as="alternateBounds" />
          </mxGeometry>
        </mxCell>
        <mxCell id="oKSWMBTvN-q5TcJnCWOV-18" value="" style="shape=tableRow;horizontal=0;startSize=0;swimlaneHead=0;swimlaneBody=0;fillColor=none;collapsible=0;dropTarget=0;points=[[0,0.5],[1,0.5]];portConstraint=eastwest;top=0;left=0;right=0;bottom=0;" vertex="1" parent="oKSWMBTvN-q5TcJnCWOV-11">
          <mxGeometry y="120" width="400" height="80" as="geometry" />
        </mxCell>
        <mxCell id="oKSWMBTvN-q5TcJnCWOV-19" value="2" style="shape=partialRectangle;connectable=0;fillColor=none;top=0;left=0;bottom=0;right=0;editable=1;overflow=hidden;whiteSpace=wrap;html=1;" vertex="1" parent="oKSWMBTvN-q5TcJnCWOV-18">
          <mxGeometry width="35" height="80" as="geometry">
            <mxRectangle width="35" height="80" as="alternateBounds" />
          </mxGeometry>
        </mxCell>
        <mxCell id="oKSWMBTvN-q5TcJnCWOV-20" value="&lt;font style=&quot;font-size: 16px;&quot;&gt;amount :&amp;nbsp; float&lt;/font&gt;" style="shape=partialRectangle;connectable=0;fillColor=none;top=0;left=0;bottom=0;right=0;align=left;spacingLeft=6;overflow=hidden;whiteSpace=wrap;html=1;" vertex="1" parent="oKSWMBTvN-q5TcJnCWOV-18">
          <mxGeometry x="35" width="365" height="80" as="geometry">
            <mxRectangle width="365" height="80" as="alternateBounds" />
          </mxGeometry>
        </mxCell>
      </root>
    </mxGraphModel>
  </diagram>
</mxfile>
